<svg xmlns="http://www.w3.org/2000/svg" viewBox="0 0 64 64" width="96px" height="96px"><linearGradient id="Ukt44jchwlE8OK9D0xw3Qa" x1="24" x2="24" y1="29" y2="39" gradientUnits="userSpaceOnUse" spreadMethod="reflect"><stop offset="0" stop-color="#6dc7ff"/><stop offset="1" stop-color="#e6abff"/></linearGradient><path fill="url(#Ukt44jchwlE8OK9D0xw3Qa)" d="M22.5,39h-1c-0.276,0-0.5-0.224-0.5-0.5V30c0-0.552,0.448-1,1-1h3c1.105,0,2,0.895,2,2v3 c0,1.105-0.895,2-2,2h-2v2.5C23,38.776,22.776,39,22.5,39z M23,34h1.5c0.276,0,0.5-0.224,0.5-0.5v-2c0-0.276-0.224-0.5-0.5-0.5H23 V34z"/><linearGradient id="Ukt44jchwlE8OK9D0xw3Qb" x1="32" x2="32" y1="29" y2="39" gradientUnits="userSpaceOnUse" spreadMethod="reflect"><stop offset="0" stop-color="#6dc7ff"/><stop offset="1" stop-color="#e6abff"/></linearGradient><path fill="url(#Ukt44jchwlE8OK9D0xw3Qb)" d="M33,29h-3.5c-0.276,0-0.5,0.224-0.5,0.5V30v0.5v7V38v0.5c0,0.276,0.224,0.5,0.5,0.5H33 c1.105,0,2-0.895,2-2v-6C35,29.895,34.105,29,33,29z M33,37h-2v-6h2V37z"/><linearGradient id="Ukt44jchwlE8OK9D0xw3Qc" x1="40" x2="40" y1="29" y2="39" gradientUnits="userSpaceOnUse" spreadMethod="reflect"><stop offset="0" stop-color="#6dc7ff"/><stop offset="1" stop-color="#e6abff"/></linearGradient><path fill="url(#Ukt44jchwlE8OK9D0xw3Qc)" d="M43,30.5v-1c0-0.276-0.224-0.5-0.5-0.5H38c-0.552,0-1,0.448-1,1v8.5 c0,0.276,0.224,0.5,0.5,0.5h1c0.276,0,0.5-0.224,0.5-0.5V35h2.5c0.276,0,0.5-0.224,0.5-0.5v-1c0-0.276-0.224-0.5-0.5-0.5H39v-2h3.5 C42.776,31,43,30.776,43,30.5z"/><linearGradient id="Ukt44jchwlE8OK9D0xw3Qd" x1="32" x2="32" y1="-275" y2="-330.012" gradientTransform="matrix(1 0 0 -1 0 -270)" gradientUnits="userSpaceOnUse" spreadMethod="reflect"><stop offset="0" stop-color="#1a6dff"/><stop offset="1" stop-color="#c822ff"/></linearGradient><path fill="url(#Ukt44jchwlE8OK9D0xw3Qd)" d="M51.122,15.708l-8.829-8.829C41.73,6.316,40.967,6,40.171,6H15c-1.657,0-3,1.343-3,3v40v2v4 c0,1.657,1.343,3,3,3h34c1.657,0,3-1.343,3-3v-4v-2V17.828C52,17.033,51.684,16.27,51.122,15.708z M48.586,16H43 c-0.552,0-1-0.448-1-1V9.414L48.586,16z M49,56H15c-0.552,0-1-0.448-1-1v-1.185C14.314,53.928,14.648,54,15,54h34 c0.352,0,0.686-0.072,1-0.184V55C50,55.552,49.552,56,49,56z M50,51c0,0.552-0.448,1-1,1H15c-0.552,0-1-0.448-1-1v-2V9 c0-0.552,0.448-1,1-1h25v7c0,1.657,1.343,3,3,3h7v31V51z"/></svg>